External Loads File
version=1
nRows=39
nColumns=13
Range=5.000000e-03-10 seconds
endheader
time 	forceRightX 	forceRightY 	forceRightZ 	pointRightX 	pointRightY 	pointRightZ 	forceLeftX 	forceLeftY 	forceLeftZ 	pointLeftX 	pointLeftY 	pointLeftZ 		
5.005000 -25.953144 -8.826572 -0.000000 0.220317 0.489765 -0.153044 156.635291 852.454364 -0.000000 0.321633 0.167339 -0.381737
5.010000 -28.906965 2.161281 -0.000000 0.228859 0.494835 -0.153415 128.958186 821.889970 -0.000000 0.312588 0.163279 -0.381662
5.015000 -30.514937 19.978891 -0.000000 0.237579 0.499061 -0.153771 196.230191 769.146291 -0.000000 0.303328 0.159815 -0.381573
5.020000 -33.358225 37.299670 -0.000000 0.246439 0.502633 -0.154155 166.928255 733.949038 -0.000000 0.293955 0.157156 -0.381466
5.025000 -28.792002 61.881939 -0.000000 0.255439 0.505429 -0.154464 236.063047 668.672680 -0.000000 0.284497 0.155120 -0.381350
5.030000 -30.905657 84.245527 -0.000000 0.264341 0.507290 -0.154429 203.941894 631.343313 -0.000000 0.274976 0.153727 -0.381223
5.035000 -20.474509 111.603246 -0.000000 0.273101 0.508405 -0.154196 246.804121 564.456598 -0.000000 0.265434 0.153088 -0.381058
5.040000 -22.233250 136.974061 -0.000000 0.281675 0.508533 -0.153929 214.606204 524.971517 -0.000000 0.255977 0.153140 -0.380869
5.045000 -5.240807 165.255399 -0.000000 0.289861 0.507944 -0.153599 243.726555 455.972805 -0.000000 0.246574 0.153989 -0.380605
5.050000 -8.020781 193.033295 -0.000000 0.297824 0.506600 -0.153152 210.763210 415.761329 -0.000000 0.237236 0.155522 -0.380374
5.055000 14.382140 222.042663 -0.000000 0.305530 0.504503 -0.152652 226.190955 348.054640 -0.000000 0.228091 0.157750 -0.380146
5.060000 9.194747 253.192318 -0.000000 0.313211 0.501679 -0.152269 194.046235 308.855992 -0.000000 0.219152 0.160785 -0.379855
5.065000 34.945342 283.534268 -0.000000 0.320369 0.497775 -0.151599 196.918043 247.247793 -0.000000 0.210275 0.164358 -0.379592
5.070000 24.293480 318.273820 -0.000000 0.327432 0.493318 -0.150988 166.444913 212.667959 -0.000000 0.201642 0.168653 -0.379368
5.075000 8.697194 353.346791 -0.000000 0.334432 0.488109 -0.150403 140.181357 179.314064 -0.000000 0.193157 0.173562 -0.379173
5.080000 36.021936 386.125706 -0.000000 0.341550 0.482218 -0.150101 135.530354 132.652036 -0.000000 0.184839 0.178872 -0.378981
5.085000 73.047752 415.107512 -0.000000 0.348370 0.475643 -0.149845 128.141523 90.836449 -0.000000 0.176832 0.184783 -0.378753
5.090000 47.663895 451.185978 -0.000000 0.355312 0.468518 -0.149285 107.880587 73.501706 -0.000000 0.169089 0.191358 -0.378624
5.095000 77.248350 477.462818 -0.000000 0.361844 0.460764 -0.149354 99.292581 47.866813 -0.000000 0.161684 0.198504 -0.378454
5.100000 43.842063 508.915973 -0.000000 0.368319 0.452787 -0.149504 87.026862 40.040524 -0.000000 0.154708 0.205913 -0.378237
5.105000 72.348738 529.821076 -0.000000 0.374362 0.444189 -0.149315 82.661349 25.525842 -0.000000 0.148181 0.213953 -0.378139
5.110000 31.115435 554.618950 -0.000000 0.380621 0.435281 -0.149785 77.423685 25.243797 -0.000000 0.142085 0.222224 -0.378071
5.115000 -13.599472 573.300544 -0.000000 0.386155 0.426071 -0.149855 74.725551 27.337486 -0.000000 0.136554 0.230846 -0.377967
5.120000 20.227857 589.032150 -0.000000 0.391259 0.416382 -0.149830 77.204934 20.901012 -0.000000 0.131551 0.239893 -0.377989
5.125000 -30.928936 603.367527 -0.000000 0.396002 0.406241 -0.149790 77.399520 26.597146 -0.000000 0.127147 0.249346 -0.378017
5.130000 -9.701703 618.664251 -0.000000 0.400313 0.395985 -0.149743 81.089983 23.286417 -0.000000 0.123412 0.259048 -0.378033
5.135000 14.180174 633.765614 -0.000000 0.404186 0.385444 -0.149690 84.673882 19.380481 -0.000000 0.120304 0.269057 -0.378064
5.140000 -41.319493 648.970147 -0.000000 0.407584 0.374619 -0.149625 85.003581 25.606351 -0.000000 0.117852 0.279272 -0.378008
5.145000 -16.509983 667.952769 -0.000000 0.410208 0.363686 -0.149168 87.283243 20.854453 -0.000000 0.116107 0.289567 -0.378018
5.150000 -70.657012 684.053240 -0.000000 0.412334 0.352621 -0.148940 85.728746 25.986104 -0.000000 0.115048 0.299972 -0.378039
5.155000 -28.058197 708.356025 -0.000000 0.414042 0.341783 -0.149119 86.243792 18.787447 -0.000000 0.114655 0.310868 -0.378064
5.160000 -81.573261 727.169430 -0.000000 0.415169 0.330412 -0.148982 82.652347 23.081079 -0.000000 0.114900 0.321034 -0.378080
5.165000 -42.467324 754.777171 -0.000000 0.415639 0.319389 -0.148901 80.541519 16.661208 -0.000000 0.115091 0.331445 -0.377313
5.170000 -93.157979 775.803946 -0.000000 0.415684 0.308114 -0.148925 75.071287 19.541276 -0.000000 0.116689 0.343007 -0.377390
5.175000 -46.910800 806.278780 -0.000000 0.415026 0.297032 -0.148960 70.630777 12.822406 -0.000000 0.118901 0.353028 -0.377493
5.180000 -95.348439 828.932822 -0.000000 0.413459 0.286039 -0.148816 63.353100 14.188994 -0.000000 0.122204 0.363882 -0.378145
5.185000 -42.328767 860.156732 -0.000000 0.411620 0.275238 -0.148306 56.609711 7.756583 -0.000000 0.125098 0.373921 -0.377666
5.190000 -88.528903 883.086582 -0.000000 0.409062 0.264460 -0.148044 48.029222 7.881648 -0.000000 0.129008 0.384123 -0.377667
5.195000 -25.056354 912.403524 -0.000000 0.405932 0.254034 -0.147836 39.735786 2.200191 -0.000000 0.133552 0.394239 -0.377798
